<?xml version="1.0" encoding="UTF-8" standalone="no" ?>
<!DOCTYPE svg PUBLIC "-//W3C//DTD SVG 1.1//EN" "http://www.w3.org/Graphics/SVG/1.1/DTD/svg11.dtd">
<svg xmlns="http://www.w3.org/2000/svg" xmlns:xlink="http://www.w3.org/1999/xlink" version="1.1" width="1280" height="1024" viewBox="0 0 1280 1024" xml:space="preserve">
<desc>Created with Fabric.js 3.1.0</desc>
<defs>
</defs>
<g transform="matrix(1.9692780337941629 0 0 1.9692780337941629 640.0153846153846 512.012312418764)" id="background-logo"  >
<rect style="stroke: none; stroke-width: 1; stroke-dasharray: none; stroke-linecap: butt; stroke-dashoffset: 0; stroke-linejoin: miter; stroke-miterlimit: 4; fill: rgb(0,53,79); fill-rule: nonzero; opacity: 1;"  paint-order="stroke"  x="-325" y="-260" rx="0" ry="0" width="650" height="520" />
</g>
<g transform="matrix(1.9692780337941629 0 0 1.9692780337941629 640.0153846153846 389.2297220544447)" style="" id="logo-logo"  >
	<g transform="matrix(1.4625931070930813 0 0 -1.4625931070930813 -73.0214234647292 -20.2868976919346)"  >
<path style="stroke: none; stroke-width: 1; stroke-dasharray: none; stroke-linecap: butt; stroke-dashoffset: 0; stroke-linejoin: miter; stroke-miterlimit: 4; fill: rgb(0,153,229); fill-rule: nonzero; opacity: 1;"  paint-order="stroke"  transform=" translate(-111.70849999999999, -142.691)" d="m 92.817 188.928 l -6.32 -1.453 v -6.474 c 0 -23.602 1.41 -43 4.888 -59.538 v 0 c 0.463 -2.177 0.949 -4.314 1.499 -6.383 v 0 c 1.54 -6.076 3.412 -11.736 5.637 -17.066 v 0 c 0.747 -1.803 1.54 -3.563 2.375 -5.306 v 0 c 0.068 -0.155 0.133 -0.308 0.2 -0.438 v 0 c 5.46 1.231 10.921 2.244 16.448 3.058 v 0 c -1.585 2.952 -3.017 6.056 -4.338 9.335 v 0 c -0.749 1.875 -1.453 3.81 -2.114 5.794 v 0 c -1.938 5.832 -3.522 12.195 -4.755 19.263 v 0 c -0.419 2.379 -0.816 4.824 -1.146 7.357 v 0 c -1.365 9.973 -2.136 21.247 -2.378 34.105 v 0 l -0.044 2.949 l 2.928 0.333 c 6.673 0.748 15.369 1.43 24.111 1.958 v 0 c 2.62 5.462 4.998 11.031 7.112 16.69 v 0 c -16.778 -0.879 -36.024 -2.335 -44.103 -4.184" stroke-linecap="round" />
</g>
	<g transform="matrix(1.4625931070930813 0 0 -1.4625931070930813 12.464949755200848 92.48926901669171)"  >
<path style="stroke: none; stroke-width: 1; stroke-dasharray: none; stroke-linecap: butt; stroke-dashoffset: 0; stroke-linejoin: miter; stroke-miterlimit: 4; fill: rgb(0,153,229); fill-rule: nonzero; opacity: 1;"  paint-order="stroke"  transform=" translate(-170.157, -65.58399999999999)" d="m 206.716 91.059 c -0.991 -1.676 -2.047 -3.307 -3.17 -4.888 v 0 c -3.545 -5.023 -7.575 -9.643 -12.132 -14.029 v 0 c -1.628 -1.586 -3.346 -3.147 -5.131 -4.664 v 0 C 180.118 62.126 173.096 56.997 165.169 51.712 v 0 l -1.806 -1.212 l -1.806 1.212 c -9.202 6.143 -17.196 12.067 -24.066 18.384 v 0 c -6.693 -0.461 -13.342 -1.233 -19.947 -2.356 v 0 C 127.958 55.958 141.522 45.215 158.96 33.986 v 0 l 4.403 -2.816 l 4.383 2.816 c 15.213 9.776 27.478 19.201 37.275 29.286 v 0 c 1.452 1.497 2.863 3.016 4.229 4.558 v 0 c 3.919 4.447 7.396 9.025 10.458 13.85 v 0 c 1.012 1.584 1.961 3.189 2.883 4.843 v 0 c 0.067 0.087 0.135 0.173 0.179 0.285 v 0 c -3.944 4.271 -7.71 8.677 -11.274 13.19 v 0 c -1.431 -3.128 -3.016 -6.1 -4.78 -8.939" stroke-linecap="round" />
</g>
	<g transform="matrix(1.4625931070930813 0 0 -1.4625931070930813 56.48461449938128 -38.016451336116916)"  >
<path style="stroke: none; stroke-width: 1; stroke-dasharray: none; stroke-linecap: butt; stroke-dashoffset: 0; stroke-linejoin: miter; stroke-miterlimit: 4; fill: rgb(0,153,229); fill-rule: nonzero; opacity: 1;"  paint-order="stroke"  transform=" translate(-200.254, -154.813)" d="m 160.302 177.721 c 1.125 0.044 2.158 0.044 3.061 0.044 v 0 c 2.048 0 4.735 -0.044 7.86 -0.131 v 0 c 1.808 -0.067 3.744 -0.131 5.814 -0.198 v 0 c 5.307 -0.221 11.338 -0.509 17.416 -0.86 v 0 c 2.003 -0.109 4.009 -0.241 5.986 -0.374 v 0 c 7.532 -0.509 14.823 -1.101 20.569 -1.738 v 0 l 2.929 -0.333 l -0.044 -2.949 c -0.265 -14.311 -1.19 -26.663 -2.841 -37.451 v 0 c 3.963 -6.254 8.277 -12.288 12.925 -18.078 v 0 c 4.469 17.768 6.229 38.906 6.229 65.348 v 0 v 6.474 l -6.296 1.453 c -7.223 1.653 -23.229 2.973 -38.509 3.855 v 0 c -1.939 0.131 -3.877 0.218 -5.771 0.329 v 0 c -6.207 0.308 -12.087 0.548 -16.909 0.705 v 0 c -2.092 0.066 -4.008 0.111 -5.657 0.128 v 0 c -0.332 0 -0.642 0.028 -0.949 0.028 v 0 c -1.739 -5.509 -3.676 -10.944 -5.813 -16.252" stroke-linecap="round" />
</g>
	<g transform="matrix(1.4625931070930813 0 0 -1.4625931070930813 82.55314274365475 21.963760689216826)"  >
<path style="stroke: none; stroke-width: 1; stroke-dasharray: none; stroke-linecap: butt; stroke-dashoffset: 0; stroke-linejoin: miter; stroke-miterlimit: 4; fill: rgb(62,158,207); fill-rule: nonzero; opacity: 1;"  paint-order="stroke"  transform=" translate(-218.07750000000001, -113.80349999999996)" d="m 210.088 110.942 c 1.232 -1.743 2.531 -3.458 3.853 -5.156 v 0 c 3.633 -4.731 7.482 -9.357 11.536 -13.804 v 0 c 1.276 -1.409 2.576 -2.795 3.896 -4.16 v 0 c 1.431 -1.519 2.883 -3.016 4.383 -4.492 v 0 l -3.414 -5.327 c -1.807 0.681 -3.589 1.319 -5.415 1.937 v 0 c -2.95 -4.803 -6.297 -9.402 -10.04 -13.831 v 0 c 9.006 -2.86 17.811 -6.318 26.331 -10.368 v 0 c 6.542 8.742 11.827 17.944 16.14 27.961 v 0 c -7.551 6.386 -14.598 13.302 -21.094 20.655 v 0 c -1.407 1.563 -2.772 3.15 -4.094 4.756 v 0 c -4.47 5.35 -8.651 10.899 -12.529 16.646 v 0 c -1.496 2.201 -2.927 4.402 -4.293 6.648 v 0 c -7.595 12.157 -13.936 25.079 -18.892 38.532 v 0 c -6.078 0.374 -12.195 0.681 -17.659 0.927 v 0 c 7.246 -21.844 17.771 -42.342 31.291 -60.924" stroke-linecap="round" />
</g>
	<g transform="matrix(1.4625931070930813 0 0 -1.4625931070930813 -43.60282570865894 60.89725790348109)"  >
<path style="stroke: none; stroke-width: 1; stroke-dasharray: none; stroke-linecap: butt; stroke-dashoffset: 0; stroke-linejoin: miter; stroke-miterlimit: 4; fill: rgb(62,158,207); fill-rule: nonzero; opacity: 1;"  paint-order="stroke"  transform=" translate(-131.8225, -87.184)" d="M 65.911 92.602 C 69.655 82.031 74.299 72.473 80.068 63.514 v 0 c 9.006 3.28 18.188 5.923 27.502 7.924 v 0 c 1.96 0.421 3.918 0.817 5.899 1.169 v 0 c 6.21 1.168 12.486 2.028 18.804 2.575 v 0 c 2.422 0.246 4.846 0.419 7.288 0.553 v 0 c 3.898 0.218 7.818 0.327 11.736 0.327 v 0 c 11.12 0 22.26 -0.902 33.293 -2.729 v 0 c 5.017 4.491 9.381 9.137 13.144 14.156 v 0 c -15.217 3.216 -30.736 4.825 -46.414 4.825 v 0 c -8.28 0 -16.558 -0.462 -24.77 -1.388 v 0 c -2.027 -0.221 -4.03 -0.464 -6.012 -0.75 v 0 c -5.637 -0.77 -11.251 -1.759 -16.8 -2.97 v 0 c -1.805 -0.398 -3.611 -0.795 -5.417 -1.259 v 0 c -2.003 -0.461 -4.007 -0.988 -5.987 -1.516 v 0 l -2.929 5.635 c 1.651 1.368 3.301 2.754 4.909 4.161 v 0 c -2.289 5.244 -4.226 10.75 -5.856 16.627 v 0 C 81.411 104.27 73.881 98.169 65.911 92.602" stroke-linecap="round" />
</g>
	<g transform="matrix(1.4625931070930813 0 0 -1.4625931070930813 -17.581831740365885 -61.349199173572856)"  >
<path style="stroke: none; stroke-width: 1; stroke-dasharray: none; stroke-linecap: butt; stroke-dashoffset: 0; stroke-linejoin: miter; stroke-miterlimit: 4; fill: rgb(62,158,207); fill-rule: nonzero; opacity: 1;"  paint-order="stroke"  transform=" translate(-149.61350000000002, -170.766)" d="m 151.782 226.206 c -1.695 -9.272 -4.03 -18.361 -6.958 -27.239 v 0 c -0.595 -1.869 -1.234 -3.743 -1.917 -5.57 v 0 c -2.025 -5.637 -4.292 -11.184 -6.803 -16.601 v 0 c -0.859 -1.913 -1.759 -3.787 -2.708 -5.657 v 0 c -6.251 -12.639 -13.805 -24.62 -22.502 -35.76 v 0 c 1.1 -7.509 2.555 -14.224 4.404 -20.318 v 0 c 15.038 17.038 27.346 36.196 36.572 56.933 v 0 c 0.837 1.85 1.653 3.699 2.422 5.596 v 0 c 2.223 5.349 4.228 10.81 6.032 16.355 v 0 c 0.595 1.832 1.168 3.681 1.718 5.531 v 0 c 0.683 2.29 1.321 4.581 1.939 6.891 v 0 l 6.34 -0.285 c 0.376 -2.268 0.794 -4.516 1.235 -6.74 v 0 c 4.666 -0.129 10.501 -0.352 16.777 -0.66 v 0 c -1.983 8.917 -3.346 17.99 -4.117 27.171 v 0 c -9.403 0.394 -17.57 0.618 -20.853 0.618 v 0 c -1.783 0 -5.769 -0.067 -11.581 -0.265" stroke-linecap="round" />
</g>
</g>
<g transform="matrix(1.9692780337941629 0 0 1.9692780337941629 635.6189714049392 800.2685009081556)" id="text-logo-path"  >
<filter id="SVGID_330456" y="-24.349086691794724%" height="148.69817338358945%" x="-20.625456061711663%" width="141.25091212342332%" >
	<feGaussianBlur in="SourceAlpha" stdDeviation="1.5"></feGaussianBlur>
	<feOffset dx="0" dy="0" result="oBlur" ></feOffset>
	<feFlood flood-color="rgb(62,158,207)" flood-opacity="1"/>
	<feComposite in2="oBlur" operator="in" />
	<feMerge>
		<feMergeNode></feMergeNode>
		<feMergeNode in="SourceGraphic"></feMergeNode>
	</feMerge>
</filter>
<path style="stroke: rgb(83,113,255); stroke-width: 0; stroke-dasharray: none; stroke-linecap: butt; stroke-dashoffset: 0; stroke-linejoin: miter; stroke-miterlimit: 4; fill: rgb(0,153,229); fill-rule: nonzero; opacity: 1;filter: url(#SVGID_330456);"  paint-order="stroke"  transform=" translate(-243.815, 33.059999999999995)" d="M 35.15 -67.55 L 66.31 0 L 3.99 0 L 35.15 -67.55 Z M 35.15 -59.19 L 9.5 -3.52 L 60.8 -3.52 L 35.15 -59.19 Z M 119.79 -63.94 Q 125.5 -61.27 128.77 -56.05 Q 132.05 -50.83 132.05 -44.46 L 132.05 -44.46 Q 132.05 -37.05 127.54 -31.21 Q 123.03 -25.37 116 -23.46 L 116 -23.46 L 132.81 0 L 128.63 0 L 112.38 -22.8 L 109.34 -22.71 L 85.5 -22.71 L 85.5 0 L 81.98 0 L 81.98 -66.12 L 107.16 -66.12 Q 111.34 -66.12 114.33 -65.6 Q 117.32 -65.08 119.79 -63.94 L 119.79 -63.94 Z M 85.5 -26.22 L 110.29 -26.22 Q 115.23 -26.22 119.41 -28.69 Q 123.59 -31.16 126.06 -35.34 Q 128.53 -39.52 128.53 -44.46 L 128.53 -44.46 Q 128.53 -49.97 125.64 -54.44 Q 122.74 -58.9 117.61 -61.09 L 117.61 -61.09 Q 113.91 -62.61 107.16 -62.61 L 107.16 -62.61 L 85.5 -62.61 L 85.5 -26.22 Z M 153.04 -25.27 Q 153.04 -19 156.23 -13.68 Q 159.41 -8.36 164.78 -5.22 Q 170.14 -2.09 176.41 -2.09 L 176.41 -2.09 Q 182.88 -2.09 188.1 -4.66 Q 193.32 -7.22 196.32 -11.78 Q 199.31 -16.34 199.41 -22.04 L 199.41 -22.04 L 202.82 -22.04 Q 202.82 -15.48 199.36 -10.12 Q 195.89 -4.75 189.86 -1.66 Q 183.82 1.43 176.41 1.43 L 176.41 1.43 Q 169.19 1.43 163.02 -2.19 Q 156.84 -5.79 153.23 -11.92 Q 149.63 -18.05 149.63 -25.27 L 149.63 -25.27 L 149.63 -40.85 Q 149.63 -48.07 153.19 -54.2 Q 156.75 -60.33 162.88 -63.94 Q 169 -67.55 176.22 -67.55 L 176.22 -67.55 Q 183.54 -67.55 189.57 -64.46 Q 195.6 -61.37 199.12 -56 Q 202.63 -50.63 202.63 -44.08 L 202.63 -44.08 L 199.22 -44.08 Q 199.12 -49.78 196.08 -54.34 Q 193.04 -58.9 187.86 -61.47 Q 182.69 -64.03 176.22 -64.03 L 176.22 -64.03 Q 169.95 -64.03 164.63 -60.9 Q 159.31 -57.76 156.18 -52.44 Q 153.04 -47.12 153.04 -40.85 L 153.04 -40.85 L 153.04 -25.27 Z M 217.07 0 L 244.24 -66.12 L 247.95 -66.12 L 275.12 0 L 271.32 0 L 262.39 -21.85 L 229.8 -21.85 L 220.78 0 L 217.07 0 Z M 246.05 -61.56 L 231.23 -25.27 L 260.96 -25.27 L 246.05 -61.56 Z M 315.69 -66.12 Q 322.9 -66.12 329.03 -62.51 Q 335.16 -58.9 338.77 -52.77 Q 342.38 -46.65 342.38 -39.42 L 342.38 -39.42 L 342.38 -26.7 Q 342.38 -19.48 338.77 -13.35 Q 335.16 -7.22 329.03 -3.61 Q 322.9 0 315.69 0 L 315.69 0 L 291.27 0 L 291.27 -66.12 L 315.69 -66.12 Z M 338.87 -26.7 L 338.87 -39.42 Q 338.87 -45.7 335.73 -51.02 Q 332.59 -56.34 327.23 -59.47 Q 321.86 -62.61 315.59 -62.61 L 315.59 -62.61 L 294.78 -62.61 L 294.78 -3.52 L 315.59 -3.52 Q 321.86 -3.52 327.23 -6.65 Q 332.59 -9.79 335.73 -15.11 Q 338.87 -20.43 338.87 -26.7 L 338.87 -26.7 Z M 365.27 -66.12 L 408.12 -66.12 L 408.12 -62.61 L 388.36 -62.61 L 388.36 -3.52 L 408.12 -3.52 L 408.12 0 L 365.27 0 L 365.27 -3.52 L 384.94 -3.52 L 384.94 -62.61 L 365.27 -62.61 L 365.27 -66.12 Z M 430.25 -66.12 L 483.64 -66.12 L 483.64 -62.61 L 458.66 -62.61 L 458.66 0 L 455.24 0 L 455.24 -62.61 L 430.25 -62.61 L 430.25 -66.12 Z" stroke-linecap="round" />
</g>
</svg>